<?xml version="1.0" standalone="no"?>
<!DOCTYPE svg PUBLIC "-//W3C//DTD SVG 20010904//EN"
 "http://www.w3.org/TR/2001/REC-SVG-20010904/DTD/svg10.dtd">
<svg version="1.0" xmlns="http://www.w3.org/2000/svg"
 width="480.000000pt" height="270.000000pt" viewBox="0 0 480.000000 270.000000"
 preserveAspectRatio="xMidYMid meet">

<g transform="translate(0.000000,270.000000) scale(0.100000,-0.100000)"
fill="#000000" stroke="none">
<path d="M1852 2090 c-51 -32 -74 -76 -69 -138 11 -145 202 -182 270 -52 22
43 18 111 -10 149 -43 58 -131 77 -191 41z"/>
<path d="M1724 1724 c-81 -85 -98 -110 -159 -233 -74 -150 -78 -181 -30 -203
47 -21 69 1 136 134 34 68 70 134 80 147 19 24 19 23 19 -80 0 -57 -7 -239
-14 -404 -17 -349 -16 -355 65 -355 68 0 70 6 82 307 5 147 13 271 17 276 3 4
18 -116 33 -265 25 -267 27 -274 52 -295 41 -36 97 -26 115 21 5 15 -4 142
-26 357 -18 184 -34 368 -34 409 l0 75 108 -108 c81 -81 114 -107 133 -107 33
0 59 29 59 66 0 24 -24 53 -155 182 -86 84 -166 157 -179 162 -15 5 -37 5 -61
-3 -27 -8 -47 -8 -81 1 -24 7 -50 12 -57 12 -6 0 -53 -43 -103 -96z"/>
<path d="M2688 1611 c-9 -13 -55 -30 -143 -54 -113 -29 -130 -37 -133 -55 -4
-27 -15 -27 303 -3 132 10 243 15 248 11 4 -3 -109 -14 -250 -24 -174 -11
-262 -21 -271 -30 -10 -10 -7 -68 20 -314 l32 -301 23 5 c38 10 72 -4 88 -36
l16 -30 109 0 110 0 0 30 c0 64 70 107 138 86 l22 -7 0 276 c0 268 1 277 20
282 17 4 20 14 20 54 0 26 -5 51 -11 54 -5 4 -66 15 -135 25 -78 12 -133 25
-143 34 -24 21 -47 20 -63 -3z"/>
<path d="M2900 877 c-53 -27 -52 -105 2 -133 29 -15 34 -15 64 0 56 26 59 103
4 131 -35 18 -38 18 -70 2z m70 -47 c15 -28 -4 -60 -35 -60 -14 0 -29 8 -35
20 -15 28 4 60 35 60 14 0 29 -8 35 -20z"/>
<path d="M2500 810 c-24 -45 21 -92 66 -71 27 12 33 58 12 79 -20 20 -66 15
-78 -8z"/>
</g>
</svg>
